<svg width="30" height="30" viewBox="0 0 30 30" fill="none" xmlns="http://www.w3.org/2000/svg">
<rect width="30" height="30" rx="6" fill="#FE8767"/>
<path d="M20.485 21.6625L16.0758 17.2532C15.8508 17.0282 15.7383 16.7821 15.7383 16.5148C15.7383 16.2335 15.8508 15.9804 16.0758 15.7554C16.3008 15.5303 16.547 15.4178 16.8142 15.4178C17.0955 15.4178 17.3486 15.5303 17.5737 15.7554L21.9829 20.1857C22.1939 20.4107 22.2994 20.6568 22.2994 20.9241C22.3134 21.1913 22.2079 21.4374 21.9829 21.6625C21.7579 21.8875 21.5047 22 21.2234 22C20.9562 22 20.7101 21.8875 20.485 21.6625ZM14.7256 22.211C13.4879 22.211 12.3557 22.007 11.329 21.5992C10.3023 21.1772 9.41626 20.5935 8.67084 19.8481C7.93948 19.0886 7.36987 18.1955 6.962 17.1688C6.55413 16.1281 6.35019 14.9888 6.35019 13.7512C6.35019 12.5135 6.55413 11.3813 6.962 10.3546C7.36987 9.32787 7.93948 8.44181 8.67084 7.69639C9.41626 6.9369 10.3023 6.35323 11.329 5.94535C12.3557 5.52342 13.4879 5.31245 14.7256 5.31245C15.9633 5.31245 17.0885 5.52342 18.1011 5.94535C19.1278 6.35323 20.0139 6.9369 20.7593 7.69639C21.5047 8.44181 22.0814 9.32787 22.4892 10.3546C22.8971 11.3813 23.101 12.5135 23.101 13.7512C23.101 14.9888 22.8971 16.1281 22.4892 17.1688C22.0814 18.1955 21.5047 19.0886 20.7593 19.8481C20.0139 20.5935 19.1278 21.1772 18.1011 21.5992C17.0885 22.007 15.9633 22.211 14.7256 22.211ZM14.7256 20.2279C15.6398 20.2279 16.4766 20.0661 17.2361 19.7426C18.0097 19.4051 18.6777 18.948 19.2403 18.3714C19.8029 17.7806 20.2319 17.0915 20.5272 16.3039C20.8366 15.5163 20.9914 14.6654 20.9914 13.7512C20.9914 12.837 20.8366 11.9861 20.5272 11.1985C20.2319 10.4108 19.8029 9.72871 19.2403 9.15206C18.6777 8.56135 18.0097 8.10426 17.2361 7.78077C16.4766 7.45729 15.6398 7.29555 14.7256 7.29555C13.8114 7.29555 12.9675 7.45729 12.194 7.78077C11.4345 8.10426 10.7735 8.56135 10.2109 9.15206C9.66239 9.72871 9.23342 10.4108 8.924 11.1985C8.61458 11.9861 8.45987 12.837 8.45987 13.7512C8.45987 14.6654 8.61458 15.5163 8.924 16.3039C9.23342 17.0915 9.66239 17.7806 10.2109 18.3714C10.7735 18.948 11.4345 19.4051 12.194 19.7426C12.9675 20.0661 13.8114 20.2279 14.7256 20.2279Z" fill="white"/>
</svg>
