<svg width="155" height="33" viewBox="0 0 155 33" fill="none" xmlns="http://www.w3.org/2000/svg">
<path d="M22.02 25.52L15.75 19.25C15.43 18.93 15.27 18.58 15.27 18.2C15.27 17.8 15.43 17.44 15.75 17.12C16.07 16.8 16.42 16.64 16.8 16.64C17.2 16.64 17.56 16.8 17.88 17.12L24.15 23.42C24.45 23.74 24.6 24.09 24.6 24.47C24.62 24.85 24.47 25.2 24.15 25.52C23.83 25.84 23.47 26 23.07 26C22.69 26 22.34 25.84 22.02 25.52ZM13.83 26.3C12.07 26.3 10.46 26.01 9 25.43C7.54 24.83 6.28 24 5.22 22.94C4.18 21.86 3.37 20.59 2.79 19.13C2.21 17.65 1.92 16.03 1.92 14.27C1.92 12.51 2.21 10.9 2.79 9.44C3.37 7.98 4.18 6.72 5.22 5.66C6.28 4.58 7.54 3.75 9 3.17C10.46 2.57 12.07 2.27 13.83 2.27C15.59 2.27 17.19 2.57 18.63 3.17C20.09 3.75 21.35 4.58 22.41 5.66C23.47 6.72 24.29 7.98 24.87 9.44C25.45 10.9 25.74 12.51 25.74 14.27C25.74 16.03 25.45 17.65 24.87 19.13C24.29 20.59 23.47 21.86 22.41 22.94C21.35 24 20.09 24.83 18.63 25.43C17.19 26.01 15.59 26.3 13.83 26.3ZM13.83 23.48C15.13 23.48 16.32 23.25 17.4 22.79C18.5 22.31 19.45 21.66 20.25 20.84C21.05 20 21.66 19.02 22.08 17.9C22.52 16.78 22.74 15.57 22.74 14.27C22.74 12.97 22.52 11.76 22.08 10.64C21.66 9.52 21.05 8.55 20.25 7.73C19.45 6.89 18.5 6.24 17.4 5.78C16.32 5.32 15.13 5.09 13.83 5.09C12.53 5.09 11.33 5.32 10.23 5.78C9.15 6.24 8.21 6.89 7.41 7.73C6.63 8.55 6.02 9.52 5.58 10.64C5.14 11.76 4.92 12.97 4.92 14.27C4.92 15.57 5.14 16.78 5.58 17.9C6.02 19.02 6.63 20 7.41 20.84C8.21 21.66 9.15 22.31 10.23 22.79C11.33 23.25 12.53 23.48 13.83 23.48ZM37.227 26.15C35.847 26.15 34.607 25.86 33.507 25.28C32.427 24.68 31.567 23.81 30.927 22.67C30.307 21.53 29.997 20.13 29.997 18.47V11.09C29.997 10.65 30.137 10.29 30.417 10.01C30.717 9.71 31.087 9.56 31.527 9.56C31.967 9.56 32.327 9.71 32.607 10.01C32.907 10.29 33.057 10.65 33.057 11.09V18.47C33.057 19.59 33.267 20.52 33.687 21.26C34.107 21.98 34.677 22.52 35.397 22.88C36.117 23.22 36.927 23.39 37.827 23.39C38.687 23.39 39.447 23.22 40.107 22.88C40.787 22.54 41.327 22.08 41.727 21.5C42.127 20.92 42.327 20.27 42.327 19.55H44.217C44.217 20.79 43.907 21.91 43.287 22.91C42.687 23.91 41.857 24.7 40.797 25.28C39.757 25.86 38.567 26.15 37.227 26.15ZM43.857 26C43.417 26 43.047 25.86 42.747 25.58C42.467 25.28 42.327 24.91 42.327 24.47V11.09C42.327 10.63 42.467 10.26 42.747 9.98C43.047 9.7 43.417 9.56 43.857 9.56C44.317 9.56 44.687 9.7 44.967 9.98C45.247 10.26 45.387 10.63 45.387 11.09V24.47C45.387 24.91 45.247 25.28 44.967 25.58C44.687 25.86 44.317 26 43.857 26ZM59.0262 26.12C57.4662 26.12 56.0662 25.76 54.8262 25.04C53.5862 24.3 52.6062 23.3 51.8862 22.04C51.1662 20.78 50.7962 19.36 50.7762 17.78V4.1C50.7762 3.64 50.9162 3.27 51.1962 2.99C51.4962 2.71 51.8662 2.57 52.3062 2.57C52.7662 2.57 53.1362 2.71 53.4162 2.99C53.6962 3.27 53.8362 3.64 53.8362 4.1V12.2C54.5362 11.36 55.3762 10.7 56.3562 10.22C57.3562 9.72 58.4462 9.47 59.6262 9.47C61.0862 9.47 62.3962 9.84 63.5562 10.58C64.7162 11.3 65.6262 12.29 66.2862 13.55C66.9662 14.79 67.3062 16.2 67.3062 17.78C67.3062 19.36 66.9362 20.78 66.1962 22.04C65.4762 23.3 64.4962 24.3 63.2562 25.04C62.0162 25.76 60.6062 26.12 59.0262 26.12ZM59.0262 23.42C60.0462 23.42 60.9562 23.18 61.7562 22.7C62.5562 22.2 63.1862 21.52 63.6462 20.66C64.1262 19.8 64.3662 18.84 64.3662 17.78C64.3662 16.7 64.1262 15.74 63.6462 14.9C63.1862 14.06 62.5562 13.4 61.7562 12.92C60.9562 12.42 60.0462 12.17 59.0262 12.17C58.0262 12.17 57.1162 12.42 56.2962 12.92C55.4962 13.4 54.8662 14.06 54.4062 14.9C53.9462 15.74 53.7162 16.7 53.7162 17.78C53.7162 18.84 53.9462 19.8 54.4062 20.66C54.8662 21.52 55.4962 22.2 56.2962 22.7C57.1162 23.18 58.0262 23.42 59.0262 23.42ZM79.5799 26.12C77.9199 26.12 76.4399 25.77 75.1399 25.07C73.8599 24.35 72.8499 23.37 72.1099 22.13C71.3899 20.87 71.0299 19.43 71.0299 17.81C71.0299 16.17 71.3699 14.73 72.0499 13.49C72.7499 12.23 73.7099 11.25 74.9299 10.55C76.1499 9.83 77.5499 9.47 79.1299 9.47C80.6899 9.47 82.0299 9.82 83.1499 10.52C84.2699 11.2 85.1199 12.15 85.6999 13.37C86.2999 14.57 86.5999 15.96 86.5999 17.54C86.5999 17.92 86.4699 18.24 86.2099 18.5C85.9499 18.74 85.6199 18.86 85.2199 18.86H73.1299V16.46H85.1299L83.8999 17.3C83.8799 16.3 83.6799 15.41 83.2999 14.63C82.9199 13.83 82.3799 13.2 81.6799 12.74C80.9799 12.28 80.1299 12.05 79.1299 12.05C77.9899 12.05 77.0099 12.3 76.1899 12.8C75.3899 13.3 74.7799 13.99 74.3599 14.87C73.9399 15.73 73.7299 16.71 73.7299 17.81C73.7299 18.91 73.9799 19.89 74.4799 20.75C74.9799 21.61 75.6699 22.29 76.5499 22.79C77.4299 23.29 78.4399 23.54 79.5799 23.54C80.1999 23.54 80.8299 23.43 81.4699 23.21C82.1299 22.97 82.6599 22.7 83.0599 22.4C83.3599 22.18 83.6799 22.07 84.0199 22.07C84.3799 22.05 84.6899 22.15 84.9499 22.37C85.2899 22.67 85.4699 23 85.4899 23.36C85.5099 23.72 85.3499 24.03 85.0099 24.29C84.3299 24.83 83.4799 25.27 82.4599 25.61C81.4599 25.95 80.4999 26.12 79.5799 26.12Z" fill="black"/>
<path d="M22.02 25.52L21.6664 25.8736H21.6664L22.02 25.52ZM15.75 19.25L16.1036 18.8964L15.75 19.25ZM15.75 17.12L16.1036 17.4736H16.1036L15.75 17.12ZM17.88 17.12L18.2344 16.7673L18.2336 16.7664L17.88 17.12ZM24.15 23.42L24.5148 23.078L24.5097 23.0726L24.5044 23.0673L24.15 23.42ZM24.6 24.47H24.1V24.4831L24.1007 24.4963L24.6 24.47ZM24.15 25.52L24.5036 25.8736V25.8736L24.15 25.52ZM9 25.43L8.80993 25.8925L8.8154 25.8947L9 25.43ZM5.22 22.94L4.85978 23.2869L4.86645 23.2936L5.22 22.94ZM2.79 19.13L2.32447 19.3124L2.32532 19.3146L2.79 19.13ZM2.79 9.44L2.32532 9.2554L2.79 9.44ZM5.22 5.66L4.86316 5.30977L4.8631 5.30983L5.22 5.66ZM9 3.17L9.18461 3.63471L9.19006 3.63247L9 3.17ZM18.63 3.17L18.4377 3.6316L18.4454 3.63468L18.63 3.17ZM22.41 5.66L22.0531 6.01025L22.0564 6.01355L22.41 5.66ZM24.87 9.44L25.3347 9.2554L25.3347 9.2554L24.87 9.44ZM24.87 19.13L25.3347 19.3146L25.3355 19.3124L24.87 19.13ZM22.41 22.94L22.7636 23.2936L22.7668 23.2902L22.41 22.94ZM18.63 25.43L18.8168 25.8938L18.8201 25.8925L18.63 25.43ZM17.4 22.79L17.5959 23.25L17.6 23.2483L17.4 22.79ZM20.25 20.84L20.6079 21.1892L20.6121 21.1848L20.25 20.84ZM22.08 17.9L21.6146 17.7172L21.6118 17.7244L22.08 17.9ZM22.08 10.64L21.6118 10.8156L21.6146 10.8228L22.08 10.64ZM20.25 7.73L19.8879 8.07485L19.8921 8.07916L20.25 7.73ZM17.4 5.78L17.2041 6.24002L17.2071 6.24129L17.4 5.78ZM10.23 5.78L10.0371 5.3187L10.0341 5.31999L10.23 5.78ZM7.41 7.73L7.04793 7.38517L7.04772 7.38539L7.41 7.73ZM7.41 20.84L7.04349 21.1803L7.05211 21.1892L7.41 20.84ZM10.23 22.79L10.0269 23.247L10.0371 23.2513L10.23 22.79ZM22.3736 25.1664L16.1036 18.8964L15.3964 19.6036L21.6664 25.8736L22.3736 25.1664ZM16.1036 18.8964C15.8581 18.651 15.77 18.4225 15.77 18.2H14.77C14.77 18.7375 15.0019 19.209 15.3964 19.6036L16.1036 18.8964ZM15.77 18.2C15.77 17.9505 15.8639 17.7132 16.1036 17.4736L15.3964 16.7664C14.9961 17.1668 14.77 17.6495 14.77 18.2H15.77ZM16.1036 17.4736C16.349 17.2281 16.5775 17.14 16.8 17.14V16.14C16.2625 16.14 15.791 16.3719 15.3964 16.7664L16.1036 17.4736ZM16.8 17.14C17.0495 17.14 17.2868 17.2339 17.5264 17.4736L18.2336 16.7664C17.8332 16.3661 17.3505 16.14 16.8 16.14V17.14ZM17.5256 17.4727L23.7956 23.7727L24.5044 23.0673L18.2344 16.7673L17.5256 17.4727ZM23.7852 23.762C24.0127 24.0046 24.1 24.2366 24.1 24.47H25.1C25.1 23.9434 24.8873 23.4754 24.5148 23.078L23.7852 23.762ZM24.1007 24.4963C24.1118 24.7079 24.0369 24.926 23.7964 25.1664L24.5036 25.8736C24.9031 25.474 25.1282 24.9921 25.0993 24.4437L24.1007 24.4963ZM23.7964 25.1664C23.5568 25.4061 23.3195 25.5 23.07 25.5V26.5C23.6205 26.5 24.1032 26.2739 24.5036 25.8736L23.7964 25.1664ZM23.07 25.5C22.8475 25.5 22.619 25.4119 22.3736 25.1664L21.6664 25.8736C22.061 26.2681 22.5325 26.5 23.07 26.5V25.5ZM13.83 25.8C12.1256 25.8 10.5792 25.5193 9.1846 24.9653L8.8154 25.8947C10.3408 26.5007 12.0144 26.8 13.83 26.8V25.8ZM9.19006 24.9675C7.78793 24.3913 6.58434 23.5972 5.57355 22.5864L4.86645 23.2936C5.97566 24.4028 7.29207 25.2687 8.80994 25.8925L9.19006 24.9675ZM5.58016 22.5932C4.58734 21.5622 3.81187 20.348 3.25468 18.9454L2.32532 19.3146C2.92813 20.832 3.77266 22.1578 4.85984 23.2868L5.58016 22.5932ZM3.25553 18.9476C2.70063 17.5316 2.42 15.9743 2.42 14.27H1.42C1.42 16.0857 1.71937 17.7684 2.32447 19.3124L3.25553 18.9476ZM2.42 14.27C2.42 12.5656 2.70066 11.0192 3.25468 9.6246L2.32532 9.2554C1.71934 10.7808 1.42 12.4544 1.42 14.27H2.42ZM3.25468 9.6246C3.81157 8.22277 4.58615 7.01998 5.5769 6.01017L4.8631 5.30983C3.77385 6.42002 2.92843 7.73723 2.32532 9.2554L3.25468 9.6246ZM5.57684 6.01023C6.58616 4.98187 7.78683 4.18995 9.1846 3.63468L8.8154 2.70532C7.29317 3.31005 5.97384 4.17813 4.86316 5.30977L5.57684 6.01023ZM9.19006 3.63247C10.5832 3.05995 12.1277 2.77 13.83 2.77V1.77C12.0123 1.77 10.3368 2.08005 8.80994 2.70753L9.19006 3.63247ZM13.83 2.77C15.5324 2.77 17.066 3.05998 18.4377 3.63154L18.8223 2.70846C17.314 2.08002 15.6476 1.77 13.83 1.77V2.77ZM18.4454 3.63468C19.8432 4.18995 21.0438 4.98187 22.0532 6.01023L22.7668 5.30977C21.6562 4.17813 20.3368 3.31005 18.8146 2.70532L18.4454 3.63468ZM22.0564 6.01355C23.066 7.02309 23.8492 8.2248 24.4053 9.6246L25.3347 9.2554C24.7308 7.7352 23.874 6.41691 22.7636 5.30645L22.0564 6.01355ZM24.4053 9.6246C24.9593 11.0192 25.24 12.5656 25.24 14.27H26.24C26.24 12.4544 25.9407 10.7808 25.3347 9.2554L24.4053 9.6246ZM25.24 14.27C25.24 15.9743 24.9594 17.5316 24.4045 18.9476L25.3355 19.3124C25.9406 17.7684 26.24 16.0857 26.24 14.27H25.24ZM24.4053 18.9454C23.8489 20.346 23.0648 21.5591 22.0532 22.5898L22.7668 23.2902C23.8752 22.1609 24.7311 20.834 25.3347 19.3146L24.4053 18.9454ZM22.0564 22.5864C21.0457 23.5972 19.8421 24.3913 18.4399 24.9675L18.8201 25.8925C20.3379 25.2687 21.6543 24.4028 22.7636 23.2936L22.0564 22.5864ZM18.4432 24.9662C17.07 25.5193 15.5345 25.8 13.83 25.8V26.8C15.6455 26.8 17.31 26.5007 18.8168 25.8938L18.4432 24.9662ZM13.83 23.98C15.1901 23.98 16.4476 23.7391 17.5959 23.25L17.2041 22.33C16.1924 22.7609 15.0699 22.98 13.83 22.98V23.98ZM17.6 23.2483C18.7563 22.7437 19.7607 22.0576 20.6079 21.1892L19.8921 20.4908C19.1393 21.2624 18.2437 21.8763 17.2 22.3317L17.6 23.2483ZM20.6121 21.1848C21.4599 20.2946 22.1053 19.2565 22.5482 18.0756L21.6118 17.7244C21.2147 18.7835 20.6401 19.7054 19.8879 20.4952L20.6121 21.1848ZM22.5454 18.0828C23.01 16.9001 23.24 15.6275 23.24 14.27H22.24C22.24 15.5125 22.03 16.6599 21.6146 17.7172L22.5454 18.0828ZM23.24 14.27C23.24 12.9125 23.01 11.6399 22.5454 10.4572L21.6146 10.8228C22.03 11.8801 22.24 13.0275 22.24 14.27H23.24ZM22.5482 10.4644C22.1049 9.28248 21.4584 8.25263 20.6079 7.38084L19.8921 8.07916C20.6416 8.84737 21.2151 9.75752 21.6118 10.8156L22.5482 10.4644ZM20.6121 7.38517C19.763 6.49365 18.7549 5.80464 17.5929 5.31871L17.2071 6.24129C18.2451 6.67535 19.137 7.28635 19.8879 8.07483L20.6121 7.38517ZM17.5959 5.31999C16.4476 4.8309 15.1901 4.59 13.83 4.59V5.59C15.0699 5.59 16.1924 5.8091 17.2041 6.24001L17.5959 5.31999ZM13.83 4.59C12.4698 4.59 11.2035 4.83093 10.0371 5.31871L10.4229 6.24129C11.4565 5.80907 12.5902 5.59 13.83 5.59V4.59ZM10.0341 5.31999C8.8922 5.80634 7.89546 6.49526 7.04793 7.38517L7.77207 8.07483C8.52454 7.28474 9.4078 6.67366 10.4259 6.24001L10.0341 5.31999ZM7.04772 7.38539C6.22047 8.25506 5.57671 9.28094 5.11462 10.4572L6.04538 10.8228C6.46329 9.75905 7.03953 8.84493 7.77228 8.07461L7.04772 7.38539ZM5.11462 10.4572C4.64997 11.6399 4.42 12.9125 4.42 14.27H5.42C5.42 13.0275 5.63003 11.8801 6.04538 10.8228L5.11462 10.4572ZM4.42 14.27C4.42 15.6275 4.64997 16.9001 5.11462 18.0828L6.04538 17.7172C5.63003 16.6599 5.42 15.5125 5.42 14.27H4.42ZM5.11462 18.0828C5.57633 19.2581 6.21896 20.2922 7.0436 21.1802L7.7764 20.4998C7.04104 19.7078 6.46367 18.7819 6.04538 17.7172L5.11462 18.0828ZM7.05211 21.1892C7.89782 22.056 8.89083 22.742 10.0269 23.2469L10.4331 22.3331C9.40917 21.878 8.52218 21.264 7.76789 20.4908L7.05211 21.1892ZM10.0371 23.2513C11.2035 23.7391 12.4698 23.98 13.83 23.98V22.98C12.5902 22.98 11.4565 22.7609 10.4229 22.3287L10.0371 23.2513ZM33.507 25.28L33.2641 25.7172L33.2738 25.7223L33.507 25.28ZM30.927 22.67L30.4877 22.9089L30.491 22.9148L30.927 22.67ZM30.417 10.01L30.0634 9.65644V9.65645L30.417 10.01ZM32.607 10.01L32.2414 10.3512L32.2532 10.3638L32.2658 10.3755L32.607 10.01ZM33.687 21.26L33.2521 21.5068L33.2551 21.5119L33.687 21.26ZM35.397 22.88L35.1733 23.3273L35.1834 23.3321L35.397 22.88ZM40.107 22.88L39.8833 22.4328L39.878 22.4355L40.107 22.88ZM41.727 21.5L42.1386 21.7839L41.727 21.5ZM42.327 19.55V19.05H41.827V19.55H42.327ZM44.217 19.55H44.717V19.05H44.217V19.55ZM43.287 22.91L42.862 22.6465L42.8582 22.6528L43.287 22.91ZM40.797 25.28L40.5569 24.8414L40.5534 24.8433L40.797 25.28ZM42.747 25.58L42.3814 25.9212L42.3932 25.9338L42.4058 25.9455L42.747 25.58ZM42.747 9.98L42.4058 9.61447L42.3995 9.62035L42.3934 9.62645L42.747 9.98ZM44.967 9.98L45.3205 9.62645L44.967 9.98ZM44.967 25.58L45.3205 25.9336L45.3266 25.9275L45.3325 25.9212L44.967 25.58ZM37.227 25.65C35.9192 25.65 34.7607 25.3758 33.7402 24.8377L33.2738 25.7223C34.4533 26.3442 35.7748 26.65 37.227 26.65V25.65ZM33.7498 24.8429C32.7555 24.2906 31.9604 23.4894 31.3629 22.4252L30.491 22.9148C31.1735 24.1306 32.0984 25.0694 33.2641 25.7171L33.7498 24.8429ZM31.3662 22.4311C30.7957 21.3821 30.497 20.0693 30.497 18.47H29.497C29.497 20.1907 29.8182 21.6779 30.4877 22.9089L31.3662 22.4311ZM30.497 18.47V11.09H29.497V18.47H30.497ZM30.497 11.09C30.497 10.7665 30.5951 10.5389 30.7705 10.3636L30.0634 9.65645C29.6788 10.041 29.497 10.5335 29.497 11.09H30.497ZM30.7705 10.3636C30.9729 10.1611 31.2141 10.06 31.527 10.06V9.06C30.9598 9.06 30.461 9.25886 30.0634 9.65644L30.7705 10.3636ZM31.527 10.06C31.8396 10.06 32.0634 10.1604 32.2414 10.3512L32.9725 9.66884C32.5905 9.25962 32.0943 9.06 31.527 9.06V10.06ZM32.2658 10.3755C32.4566 10.5536 32.557 10.7774 32.557 11.09H33.557C33.557 10.5226 33.3573 10.0264 32.9481 9.64447L32.2658 10.3755ZM32.557 11.09V18.47H33.557V11.09H32.557ZM32.557 18.47C32.557 19.65 32.778 20.6714 33.2521 21.5068L34.1218 21.0132C33.7559 20.3686 33.557 19.53 33.557 18.47H32.557ZM33.2551 21.5119C33.7222 22.3127 34.3632 22.9221 35.1733 23.3272L35.6206 22.4328C34.9907 22.1179 34.4917 21.6473 34.1188 21.0081L33.2551 21.5119ZM35.1834 23.3321C35.9784 23.7075 36.8628 23.89 37.827 23.89V22.89C36.9911 22.89 36.2555 22.7325 35.6105 22.4279L35.1834 23.3321ZM37.827 23.89C38.754 23.89 39.5947 23.7064 40.3359 23.3245L39.878 22.4355C39.2992 22.7337 38.6199 22.89 37.827 22.89V23.89ZM40.3306 23.3272C41.0799 22.9526 41.6869 22.4387 42.1386 21.7839L41.3153 21.2161C40.967 21.7213 40.494 22.1274 39.8833 22.4328L40.3306 23.3272ZM42.1386 21.7839C42.5975 21.1185 42.827 20.369 42.827 19.55H41.827C41.827 20.171 41.6565 20.7215 41.3153 21.2161L42.1386 21.7839ZM42.327 20.05H44.217V19.05H42.327V20.05ZM43.717 19.55C43.717 20.7022 43.4303 21.73 42.862 22.6465L43.7119 23.1735C44.3837 22.09 44.717 20.8778 44.717 19.55H43.717ZM42.8582 22.6528C42.3056 23.5738 41.542 24.3024 40.5569 24.8414L41.037 25.7186C42.1719 25.0976 43.0683 24.2462 43.7157 23.1672L42.8582 22.6528ZM40.5534 24.8433C39.5968 25.3768 38.4926 25.65 37.227 25.65V26.65C38.6413 26.65 39.9171 26.3432 41.0405 25.7167L40.5534 24.8433ZM43.857 25.5C43.5336 25.5 43.2885 25.4015 43.0881 25.2145L42.4058 25.9455C42.8055 26.3185 43.3003 26.5 43.857 26.5V25.5ZM43.1125 25.2388C42.9255 25.0385 42.827 24.7934 42.827 24.47H41.827C41.827 25.0266 42.0084 25.5215 42.3814 25.9212L43.1125 25.2388ZM42.827 24.47V11.09H41.827V24.47H42.827ZM42.827 11.09C42.827 10.7394 42.9295 10.5046 43.1005 10.3336L42.3934 9.62645C42.0044 10.0154 41.827 10.5206 41.827 11.09H42.827ZM43.0881 10.3455C43.2885 10.1585 43.5336 10.06 43.857 10.06V9.06C43.3003 9.06 42.8055 9.24146 42.4058 9.61447L43.0881 10.3455ZM43.857 10.06C44.2075 10.06 44.4424 10.1625 44.6134 10.3336L45.3205 9.62645C44.9315 9.23747 44.4264 9.06 43.857 9.06V10.06ZM44.6134 10.3336C44.7844 10.5046 44.887 10.7394 44.887 11.09H45.887C45.887 10.5206 45.7095 10.0154 45.3205 9.62645L44.6134 10.3336ZM44.887 11.09V24.47H45.887V11.09H44.887ZM44.887 24.47C44.887 24.7934 44.7884 25.0385 44.6014 25.2388L45.3325 25.9212C45.7055 25.5215 45.887 25.0266 45.887 24.47H44.887ZM44.6134 25.2264C44.4424 25.3975 44.2075 25.5 43.857 25.5V26.5C44.4264 26.5 44.9315 26.3225 45.3205 25.9336L44.6134 25.2264ZM54.8262 25.04L54.5699 25.4694L54.5751 25.4724L54.8262 25.04ZM51.8862 22.04L51.452 22.2881L51.8862 22.04ZM50.7762 17.78H50.2761L50.2762 17.7863L50.7762 17.78ZM51.1962 2.99L50.855 2.62447L50.8487 2.63035L50.8426 2.63645L51.1962 2.99ZM53.8362 12.2H53.3362V13.581L54.2203 12.5201L53.8362 12.2ZM56.3562 10.22L56.5761 10.669L56.5798 10.6672L56.3562 10.22ZM63.5562 10.58L63.2872 11.0016L63.2925 11.0048L63.5562 10.58ZM66.2862 13.55L65.8432 13.782L65.8478 13.7904L66.2862 13.55ZM66.1962 22.04L65.765 21.7868L65.7621 21.7919L66.1962 22.04ZM63.2562 25.04L63.5073 25.4724L63.5124 25.4694L63.2562 25.04ZM61.7562 22.7L62.0135 23.1288L62.0212 23.124L61.7562 22.7ZM63.6462 20.66L63.2095 20.4163L63.2053 20.4242L63.6462 20.66ZM63.6462 14.9L63.2076 15.1402L63.2121 15.1481L63.6462 14.9ZM61.7562 12.92L61.4911 13.3441L61.4989 13.3487L61.7562 12.92ZM56.2962 12.92L56.5534 13.3488L56.5565 13.3469L56.2962 12.92ZM54.4062 14.9L54.8447 15.1402L54.4062 14.9ZM54.4062 20.66L53.9653 20.8958L54.4062 20.66ZM56.2962 22.7L56.0312 23.124L56.0373 23.1278L56.0436 23.1315L56.2962 22.7ZM59.0262 25.62C57.5464 25.62 56.2343 25.2795 55.0772 24.6076L54.5751 25.4724C55.898 26.2405 57.386 26.62 59.0262 26.62V25.62ZM55.0824 24.6106C53.9167 23.915 52.9978 22.9776 52.3203 21.7919L51.452 22.2881C52.2145 23.6224 53.2556 24.685 54.5699 25.4694L55.0824 24.6106ZM52.3203 21.7919C51.6461 20.6121 51.2952 19.2765 51.2761 17.7737L50.2762 17.7863C50.2972 19.4435 50.6863 20.9479 51.452 22.2881L52.3203 21.7919ZM51.2762 17.78V4.1H50.2762V17.78H51.2762ZM51.2762 4.1C51.2762 3.74943 51.3787 3.51458 51.5497 3.34355L50.8426 2.63645C50.4536 3.02542 50.2762 3.53057 50.2762 4.1H51.2762ZM51.5373 3.35553C51.7377 3.16854 51.9828 3.07 52.3062 3.07V2.07C51.7495 2.07 51.2547 2.25146 50.855 2.62447L51.5373 3.35553ZM52.3062 3.07C52.6567 3.07 52.8916 3.17253 53.0626 3.34355L53.7697 2.63645C53.3807 2.24747 52.8756 2.07 52.3062 2.07V3.07ZM53.0626 3.34355C53.2336 3.51458 53.3362 3.74943 53.3362 4.1H54.3362C54.3362 3.53057 54.1587 3.02542 53.7697 2.63645L53.0626 3.34355ZM53.3362 4.1V12.2H54.3362V4.1H53.3362ZM54.2203 12.5201C54.8753 11.734 55.6594 11.118 56.5761 10.669L56.1362 9.77097C55.0929 10.282 54.197 10.986 53.4521 11.8799L54.2203 12.5201ZM56.5798 10.6672C57.5065 10.2039 58.5194 9.97 59.6262 9.97V8.97C58.373 8.97 57.2058 9.23615 56.1326 9.77279L56.5798 10.6672ZM59.6262 9.97C60.997 9.97 62.2126 10.316 63.2873 11.0015L63.8251 10.1585C62.5798 9.36404 61.1754 8.97 59.6262 8.97V9.97ZM63.2925 11.0048C64.3733 11.6757 65.2229 12.5977 65.8433 13.782L66.7291 13.318C66.0294 11.9823 65.059 10.9243 63.8199 10.1552L63.2925 11.0048ZM65.8478 13.7904C66.4828 14.9484 66.8062 16.274 66.8062 17.78H67.8062C67.8062 16.126 67.4496 14.6316 66.7246 13.3096L65.8478 13.7904ZM66.8062 17.78C66.8062 19.2785 66.4563 20.6098 65.765 21.7868L66.6273 22.2932C67.416 20.9502 67.8062 19.4415 67.8062 17.78H66.8062ZM65.7621 21.7919C65.0845 22.9776 64.1656 23.915 62.9999 24.6106L63.5124 25.4694C64.8267 24.685 65.8678 23.6224 66.6303 22.2881L65.7621 21.7919ZM63.0051 24.6076C61.849 25.2789 60.5272 25.62 59.0262 25.62V26.62C60.6851 26.62 62.1834 26.2411 63.5072 25.4724L63.0051 24.6076ZM59.0262 23.92C60.1281 23.92 61.1286 23.6597 62.0134 23.1287L61.4989 22.2713C60.7838 22.7003 59.9643 22.92 59.0262 22.92V23.92ZM62.0212 23.124C62.8978 22.5761 63.5873 21.8301 64.0871 20.8958L63.2053 20.4242C62.785 21.2099 62.2145 21.8239 61.4912 22.276L62.0212 23.124ZM64.0828 20.9037C64.6075 19.9636 64.8662 18.9186 64.8662 17.78H63.8662C63.8662 18.7614 63.6448 19.6364 63.2096 20.4163L64.0828 20.9037ZM64.8662 17.78C64.8662 16.6233 64.6083 15.576 64.0803 14.6519L63.2121 15.1481C63.644 15.904 63.8662 16.7767 63.8662 17.78H64.8662ZM64.0847 14.6598C63.5833 13.7442 62.8916 13.0182 62.0134 12.4913L61.4989 13.3487C62.2207 13.7818 62.7891 14.3758 63.2076 15.1402L64.0847 14.6598ZM62.0212 12.496C61.1353 11.9423 60.132 11.67 59.0262 11.67V12.67C59.9604 12.67 60.7771 12.8977 61.4912 13.344L62.0212 12.496ZM59.0262 11.67C57.9383 11.67 56.9376 11.9433 56.0359 12.4931L56.5565 13.3469C57.2948 12.8967 58.114 12.67 59.0262 12.67V11.67ZM56.0389 12.4913C55.1607 13.0182 54.4691 13.7442 53.9676 14.6598L54.8447 15.1402C55.2633 14.3758 55.8316 13.7818 56.5534 13.3487L56.0389 12.4913ZM53.9676 14.6598C53.4624 15.5825 53.2162 16.6269 53.2162 17.78H54.2162C54.2162 16.7731 54.43 15.8975 54.8447 15.1402L53.9676 14.6598ZM53.2162 17.78C53.2162 18.915 53.4632 19.9571 53.9653 20.8958L54.8471 20.4242C54.4292 19.6429 54.2162 18.765 54.2162 17.78H53.2162ZM53.9653 20.8958C54.465 21.8301 55.1545 22.5761 56.0312 23.124L56.5612 22.276C55.8378 21.8239 55.2673 21.2099 54.8471 20.4242L53.9653 20.8958ZM56.0436 23.1315C56.9443 23.6587 57.9422 23.92 59.0262 23.92V22.92C58.1101 22.92 57.2881 22.7013 56.5488 22.2685L56.0436 23.1315ZM75.1399 25.07L74.8948 25.5059L74.9029 25.5102L75.1399 25.07ZM72.1099 22.13L71.6757 22.3781L71.6806 22.3862L72.1099 22.13ZM72.0499 13.49L71.6128 13.2472L71.6115 13.2496L72.0499 13.49ZM74.9299 10.55L75.1788 10.9837L75.1841 10.9806L74.9299 10.55ZM83.1499 10.52L82.8849 10.944L82.8904 10.9474L83.1499 10.52ZM85.6999 13.37L85.2483 13.5847L85.2527 13.5936L85.6999 13.37ZM86.2099 18.5L86.5491 18.8674L86.5564 18.8606L86.5635 18.8536L86.2099 18.5ZM73.1299 18.86H72.6299V19.36H73.1299V18.86ZM73.1299 16.46V15.96H72.6299V16.46H73.1299ZM85.1299 16.46L85.4119 16.8729L86.7486 15.96H85.1299V16.46ZM83.8999 17.3L83.4 17.31L83.4185 18.2342L84.1819 17.7129L83.8999 17.3ZM83.2999 14.63L82.8483 14.8445L82.8504 14.849L83.2999 14.63ZM76.1899 12.8L75.9296 12.3731L75.9249 12.376L76.1899 12.8ZM74.3599 14.87L74.8092 15.0894L74.8112 15.0854L74.3599 14.87ZM74.4799 20.75L74.0477 21.0013L74.4799 20.75ZM76.5499 22.79L76.7969 22.3553L76.5499 22.79ZM81.4699 23.21L81.6325 23.6829L81.6408 23.6799L81.4699 23.21ZM83.0599 22.4L82.7642 21.9968L82.7599 22L83.0599 22.4ZM84.0199 22.07V22.57H84.0338L84.0477 22.5692L84.0199 22.07ZM84.9499 22.37L85.2808 21.995L85.2729 21.9883L84.9499 22.37ZM85.4899 23.36L85.9892 23.3323L85.4899 23.36ZM85.0099 24.29L84.7061 23.8928L84.699 23.8984L85.0099 24.29ZM82.4599 25.61L82.3018 25.1357L82.299 25.1366L82.4599 25.61ZM79.5799 25.62C77.9922 25.62 76.5955 25.2859 75.377 24.6298L74.9029 25.5102C76.2844 26.2541 77.8476 26.62 79.5799 26.62V25.62ZM75.3851 24.6342C74.1797 23.9562 73.2338 23.0375 72.5393 21.8738L71.6806 22.3862C72.4661 23.7024 73.5401 24.7438 74.8948 25.5058L75.3851 24.6342ZM72.544 21.8819C71.8721 20.706 71.5299 19.3533 71.5299 17.81H70.5299C70.5299 19.5067 70.9078 21.034 71.6758 22.3781L72.544 21.8819ZM71.5299 17.81C71.5299 16.2405 71.8548 14.8857 72.4883 13.7304L71.6115 13.2496C70.8851 14.5743 70.5299 16.0995 70.5299 17.81H71.5299ZM72.487 13.7328C73.1439 12.5503 74.0397 11.6372 75.1788 10.9837L74.6811 10.1163C73.3801 10.8628 72.3559 11.9097 71.6128 13.2472L72.487 13.7328ZM75.1841 10.9806C76.3185 10.3111 77.6287 9.97 79.1299 9.97V8.97C77.4711 8.97 75.9814 9.34888 74.6758 10.1194L75.1841 10.9806ZM79.1299 9.97C80.6134 9.97 81.8578 10.3021 82.8849 10.944L83.4149 10.096C82.202 9.33794 80.7664 8.97 79.1299 8.97V9.97ZM82.8904 10.9474C83.9243 11.5751 84.7089 12.4499 85.2484 13.5847L86.1515 13.1553C85.531 11.8501 84.6155 10.8249 83.4094 10.0926L82.8904 10.9474ZM85.2527 13.5936C85.8123 14.7129 86.0999 16.0239 86.0999 17.54H87.0999C87.0999 15.8961 86.7875 14.4271 86.1471 13.1464L85.2527 13.5936ZM86.0999 17.54C86.0999 17.7924 86.0191 17.9837 85.8564 18.1464L86.5635 18.8536C86.9207 18.4963 87.0999 18.0476 87.0999 17.54H86.0999ZM85.8708 18.1326C85.7153 18.2761 85.5119 18.36 85.2199 18.36V19.36C85.728 19.36 86.1845 19.2039 86.5491 18.8674L85.8708 18.1326ZM85.2199 18.36H73.1299V19.36H85.2199V18.36ZM73.6299 18.86V16.46H72.6299V18.86H73.6299ZM73.1299 16.96H85.1299V15.96H73.1299V16.96ZM84.8479 16.0471L83.6179 16.8871L84.1819 17.7129L85.4119 16.8729L84.8479 16.0471ZM84.3998 17.29C84.3786 16.2285 84.1657 15.2654 83.7494 14.411L82.8504 14.849C83.1942 15.5546 83.3812 16.3715 83.4 17.31L84.3998 17.29ZM83.7516 14.4155C83.3346 13.5377 82.7355 12.8354 81.9545 12.3221L81.4053 13.1579C82.0244 13.5646 82.5052 14.1223 82.8483 14.8445L83.7516 14.4155ZM81.9545 12.3221C81.1583 11.7989 80.2083 11.55 79.1299 11.55V12.55C80.0515 12.55 80.8016 12.7611 81.4053 13.1579L81.9545 12.3221ZM79.1299 11.55C77.9154 11.55 76.8416 11.817 75.9296 12.3731L76.4502 13.2269C77.1782 12.783 78.0644 12.55 79.1299 12.55V11.55ZM75.9249 12.376C75.0415 12.9282 74.3682 13.6918 73.9087 14.6546L74.8112 15.0854C75.1916 14.2882 75.7384 13.6718 76.4549 13.224L75.9249 12.376ZM73.9106 14.6506C73.4526 15.5884 73.2299 16.6453 73.2299 17.81H74.2299C74.2299 16.7747 74.4272 15.8716 74.8092 15.0894L73.9106 14.6506ZM73.2299 17.81C73.2299 18.9887 73.4987 20.0571 74.0477 21.0013L74.9122 20.4987C74.4611 19.7229 74.2299 18.8313 74.2299 17.81H73.2299ZM74.0477 21.0013C74.5929 21.9391 75.3474 22.6818 76.3029 23.2247L76.7969 22.3553C75.9924 21.8982 75.3669 21.2809 74.9122 20.4987L74.0477 21.0013ZM76.3029 23.2247C77.2673 23.7727 78.3645 24.04 79.5799 24.04V23.04C78.5154 23.04 77.5925 22.8073 76.7969 22.3553L76.3029 23.2247ZM79.5799 24.04C80.2601 24.04 80.9449 23.9192 81.6325 23.6828L81.3074 22.7372C80.7149 22.9408 80.1398 23.04 79.5799 23.04V24.04ZM81.6408 23.6799C82.3299 23.4293 82.9082 23.1388 83.3599 22.8L82.7599 22C82.4116 22.2612 81.9299 22.5107 81.299 22.7401L81.6408 23.6799ZM83.3556 22.8032C83.5784 22.6398 83.7964 22.57 84.0199 22.57V21.57C83.5635 21.57 83.1415 21.7202 82.7642 21.9968L83.3556 22.8032ZM84.0477 22.5692C84.2883 22.5559 84.4706 22.6194 84.627 22.7517L85.2729 21.9883C84.9092 21.6806 84.4716 21.5441 83.9922 21.5708L84.0477 22.5692ZM84.6191 22.7449C84.8861 22.9805 84.9799 23.1938 84.9907 23.3877L85.9892 23.3323C85.9599 22.8062 85.6938 22.3595 85.2807 21.9951L84.6191 22.7449ZM84.9907 23.3877C84.9997 23.5499 84.943 23.7118 84.7062 23.8928L85.3136 24.6872C85.7569 24.3482 86.0201 23.8901 85.9892 23.3323L84.9907 23.3877ZM84.699 23.8984C84.0741 24.3947 83.2791 24.8099 82.3018 25.1357L82.618 26.0843C83.6807 25.7301 84.5857 25.2653 85.3209 24.6816L84.699 23.8984ZM82.299 25.1366C81.3433 25.4616 80.4377 25.62 79.5799 25.62V26.62C80.5621 26.62 81.5766 26.4384 82.6209 26.0834L82.299 25.1366Z" fill="black"/>
<path d="M92.56 26C92.12 26 91.75 25.85 91.45 25.55C91.15 25.25 91 24.88 91 24.44V4.13C91 3.67 91.15 3.3 91.45 3.02C91.75 2.72 92.12 2.57 92.56 2.57H98.56C100.06 2.57 101.39 2.9 102.55 3.56C103.71 4.22 104.61 5.14 105.25 6.32C105.91 7.48 106.24 8.82 106.24 10.34C106.24 11.8 105.91 13.1 105.25 14.24C104.61 15.38 103.71 16.27 102.55 16.91C101.39 17.55 100.06 17.87 98.56 17.87H94.12V24.44C94.12 24.88 93.97 25.25 93.67 25.55C93.39 25.85 93.02 26 92.56 26ZM94.12 14.99H98.56C99.48 14.99 100.29 14.79 100.99 14.39C101.69 13.99 102.24 13.44 102.64 12.74C103.04 12.04 103.24 11.24 103.24 10.34C103.24 9.38 103.04 8.54 102.64 7.82C102.24 7.08 101.69 6.5 100.99 6.08C100.29 5.66 99.48 5.45 98.56 5.45H94.12V14.99ZM120.521 26.3C118.761 26.3 117.151 26.01 115.691 25.43C114.231 24.83 112.971 24 111.911 22.94C110.871 21.86 110.061 20.59 109.481 19.13C108.901 17.65 108.611 16.03 108.611 14.27C108.611 12.51 108.901 10.9 109.481 9.44C110.061 7.98 110.871 6.72 111.911 5.66C112.971 4.58 114.231 3.75 115.691 3.17C117.151 2.57 118.761 2.27 120.521 2.27C122.281 2.27 123.881 2.57 125.321 3.17C126.781 3.75 128.041 4.58 129.101 5.66C130.161 6.72 130.981 7.98 131.561 9.44C132.141 10.9 132.431 12.51 132.431 14.27C132.431 16.03 132.141 17.65 131.561 19.13C130.981 20.59 130.161 21.86 129.101 22.94C128.041 24 126.781 24.83 125.321 25.43C123.881 26.01 122.281 26.3 120.521 26.3ZM120.521 23.48C121.821 23.48 123.011 23.25 124.091 22.79C125.191 22.31 126.141 21.66 126.941 20.84C127.741 20 128.351 19.02 128.771 17.9C129.211 16.78 129.431 15.57 129.431 14.27C129.431 12.97 129.211 11.76 128.771 10.64C128.351 9.52 127.741 8.55 126.941 7.73C126.141 6.89 125.191 6.24 124.091 5.78C123.011 5.32 121.821 5.09 120.521 5.09C119.221 5.09 118.021 5.32 116.921 5.78C115.841 6.24 114.901 6.89 114.101 7.73C113.321 8.55 112.711 9.52 112.271 10.64C111.831 11.76 111.611 12.97 111.611 14.27C111.611 15.57 111.831 16.78 112.271 17.9C112.711 19.02 113.321 20 114.101 20.84C114.901 21.66 115.841 22.31 116.921 22.79C118.021 23.25 119.221 23.48 120.521 23.48ZM144.758 26.3C143.478 26.3 142.258 26.1 141.098 25.7C139.938 25.3 138.928 24.74 138.068 24.02C137.208 23.3 136.578 22.47 136.178 21.53C135.978 21.11 135.978 20.72 136.178 20.36C136.398 20 136.758 19.77 137.258 19.67C137.618 19.59 137.968 19.65 138.308 19.85C138.668 20.03 138.938 20.31 139.118 20.69C139.358 21.19 139.748 21.65 140.288 22.07C140.848 22.49 141.518 22.83 142.298 23.09C143.078 23.35 143.898 23.48 144.758 23.48C145.718 23.48 146.598 23.33 147.398 23.03C148.218 22.73 148.878 22.3 149.378 21.74C149.878 21.16 150.128 20.45 150.128 19.61C150.128 18.55 149.708 17.6 148.868 16.76C148.048 15.92 146.688 15.4 144.788 15.2C142.308 14.96 140.358 14.23 138.938 13.01C137.518 11.79 136.808 10.28 136.808 8.48C136.808 7.16 137.178 6.04 137.918 5.12C138.658 4.2 139.658 3.5 140.918 3.02C142.198 2.54 143.618 2.3 145.178 2.3C146.398 2.3 147.458 2.47 148.358 2.81C149.278 3.15 150.078 3.62 150.758 4.22C151.438 4.82 152.028 5.53 152.528 6.35C152.808 6.79 152.918 7.21 152.858 7.61C152.818 7.99 152.628 8.29 152.288 8.51C151.908 8.75 151.498 8.8 151.058 8.66C150.618 8.52 150.288 8.26 150.068 7.88C149.748 7.3 149.358 6.81 148.898 6.41C148.438 6.01 147.898 5.7 147.278 5.48C146.658 5.24 145.928 5.12 145.088 5.12C143.608 5.1 142.368 5.38 141.368 5.96C140.368 6.52 139.868 7.39 139.868 8.57C139.868 9.17 140.018 9.75 140.318 10.31C140.638 10.85 141.208 11.32 142.028 11.72C142.868 12.12 144.068 12.4 145.628 12.56C148.008 12.8 149.858 13.53 151.178 14.75C152.518 15.95 153.188 17.54 153.188 19.52C153.188 20.66 152.948 21.65 152.468 22.49C152.008 23.33 151.378 24.04 150.578 24.62C149.798 25.18 148.898 25.6 147.878 25.88C146.878 26.16 145.838 26.3 144.758 26.3Z" fill="#FE724C"/>
<path d="M91.45 25.55L91.0964 25.9036L91.45 25.55ZM91.45 3.02L91.7912 3.38553L91.7975 3.37965L91.8036 3.37355L91.45 3.02ZM102.55 3.56L102.303 3.99458L102.55 3.56ZM105.25 6.32L104.81 6.55843L104.815 6.56726L105.25 6.32ZM105.25 14.24L104.817 13.9895L104.814 13.9952L105.25 14.24ZM102.55 16.91L102.792 17.3478V17.3478L102.55 16.91ZM94.12 17.87V17.37H93.62V17.87H94.12ZM93.67 25.55L93.3164 25.1964L93.3104 25.2025L93.3045 25.2088L93.67 25.55ZM94.12 14.99H93.62V15.49H94.12V14.99ZM100.99 14.39L100.742 13.9559H100.742L100.99 14.39ZM102.64 12.74L103.074 12.9881L102.64 12.74ZM102.64 7.82L102.2 8.05777L102.203 8.06282L102.64 7.82ZM94.12 5.45V4.95H93.62V5.45H94.12ZM92.56 25.5C92.2471 25.5 92.006 25.3989 91.8036 25.1964L91.0964 25.9036C91.494 26.3011 91.9929 26.5 92.56 26.5V25.5ZM91.8036 25.1964C91.6011 24.994 91.5 24.7529 91.5 24.44H90.5C90.5 25.0071 90.6989 25.506 91.0964 25.9036L91.8036 25.1964ZM91.5 24.44V4.13H90.5V24.44H91.5ZM91.5 4.13C91.5 3.79007 91.6053 3.55903 91.7912 3.38553L91.1088 2.65447C90.6947 3.04097 90.5 3.54993 90.5 4.13H91.5ZM91.8036 3.37355C92.006 3.17113 92.2471 3.07 92.56 3.07V2.07C91.9929 2.07 91.494 2.26886 91.0964 2.66645L91.8036 3.37355ZM92.56 3.07H98.56V2.07H92.56V3.07ZM98.56 3.07C99.9843 3.07 101.227 3.38257 102.303 3.99458L102.797 3.12542C101.553 2.41743 100.136 2.07 98.56 2.07V3.07ZM102.303 3.99458C103.381 4.60813 104.215 5.45994 104.81 6.55838L105.69 6.08162C105.005 4.82006 104.039 3.83187 102.797 3.12542L102.303 3.99458ZM104.815 6.56726C105.427 7.64194 105.74 8.89447 105.74 10.34H106.74C106.74 8.74553 106.393 7.31805 105.685 6.07274L104.815 6.56726ZM105.74 10.34C105.74 11.7218 105.429 12.9336 104.817 13.9895L105.683 14.4905C106.391 13.2664 106.74 11.8782 106.74 10.34H105.74ZM104.814 13.9952C104.22 15.0529 103.388 15.8766 102.308 16.4722L102.792 17.3478C104.032 16.6634 105 15.7071 105.686 14.4848L104.814 13.9952ZM102.308 16.4722C101.232 17.0663 99.9869 17.37 98.56 17.37V18.37C100.133 18.37 101.548 18.0337 102.792 17.3478L102.308 16.4722ZM98.56 17.37H94.12V18.37H98.56V17.37ZM93.62 17.87V24.44H94.62V17.87H93.62ZM93.62 24.44C93.62 24.7529 93.5189 24.994 93.3164 25.1964L94.0236 25.9036C94.4211 25.506 94.62 25.0071 94.62 24.44H93.62ZM93.3045 25.2088C93.131 25.3947 92.8999 25.5 92.56 25.5V26.5C93.1401 26.5 93.649 26.3053 94.0355 25.8912L93.3045 25.2088ZM94.12 15.49H98.56V14.49H94.12V15.49ZM98.56 15.49C99.5545 15.49 100.452 15.2731 101.238 14.8241L100.742 13.9559C100.128 14.3069 99.4055 14.49 98.56 14.49V15.49ZM101.238 14.8241C102.016 14.3798 102.63 13.7656 103.074 12.9881L102.206 12.4919C101.85 13.1144 101.364 13.6002 100.742 13.9559L101.238 14.8241ZM103.074 12.9881C103.522 12.204 103.74 11.3167 103.74 10.34H102.74C102.74 11.1633 102.558 11.876 102.206 12.4919L103.074 12.9881ZM103.74 10.34C103.74 9.30919 103.525 8.38292 103.077 7.57718L102.203 8.06282C102.555 8.69707 102.74 9.45081 102.74 10.34H103.74ZM103.08 7.58224C102.639 6.76587 102.027 6.11884 101.247 5.65125L100.733 6.50875C101.353 6.88116 101.841 7.39413 102.2 8.05776L103.08 7.58224ZM101.247 5.65125C100.46 5.17892 99.5588 4.95 98.56 4.95V5.95C99.4012 5.95 100.12 6.14108 100.733 6.50875L101.247 5.65125ZM98.56 4.95H94.12V5.95H98.56V4.95ZM93.62 5.45V14.99H94.62V5.45H93.62ZM115.691 25.43L115.501 25.8925L115.507 25.8947L115.691 25.43ZM111.911 22.94L111.551 23.2869L111.558 23.2936L111.911 22.94ZM109.481 19.13L109.016 19.3124L109.017 19.3146L109.481 19.13ZM109.481 9.44L109.017 9.2554H109.017L109.481 9.44ZM111.911 5.66L111.555 5.30977L111.555 5.30983L111.911 5.66ZM115.691 3.17L115.876 3.63471L115.881 3.63247L115.691 3.17ZM125.321 3.17L125.129 3.6316L125.137 3.63468L125.321 3.17ZM129.101 5.66L128.745 6.01025L128.748 6.01355L129.101 5.66ZM131.561 9.44L132.026 9.2554V9.2554L131.561 9.44ZM131.561 19.13L132.026 19.3146L132.027 19.3124L131.561 19.13ZM129.101 22.94L129.455 23.2936L129.458 23.2902L129.101 22.94ZM125.321 25.43L125.508 25.8938L125.511 25.8925L125.321 25.43ZM124.091 22.79L124.287 23.25L124.291 23.2483L124.091 22.79ZM126.941 20.84L127.299 21.1892L127.303 21.1848L126.941 20.84ZM128.771 17.9L128.306 17.7172L128.303 17.7244L128.771 17.9ZM128.771 10.64L128.303 10.8156L128.306 10.8228L128.771 10.64ZM126.941 7.73L126.579 8.07485L126.584 8.07916L126.941 7.73ZM124.091 5.78L123.895 6.24002L123.899 6.24129L124.091 5.78ZM116.921 5.78L116.729 5.3187L116.725 5.31999L116.921 5.78ZM114.101 7.73L113.739 7.38517L113.739 7.38539L114.101 7.73ZM114.101 20.84L113.735 21.1803L113.744 21.1892L114.101 20.84ZM116.921 22.79L116.718 23.247L116.729 23.2513L116.921 22.79ZM120.521 25.8C118.817 25.8 117.271 25.5193 115.876 24.9653L115.507 25.8947C117.032 26.5007 118.706 26.8 120.521 26.8V25.8ZM115.881 24.9675C114.479 24.3913 113.276 23.5972 112.265 22.5864L111.558 23.2936C112.667 24.4028 113.983 25.2687 115.501 25.8925L115.881 24.9675ZM112.272 22.5932C111.279 21.5622 110.503 20.348 109.946 18.9454L109.017 19.3146C109.62 20.832 110.464 22.1578 111.551 23.2868L112.272 22.5932ZM109.947 18.9476C109.392 17.5316 109.111 15.9743 109.111 14.27H108.111C108.111 16.0857 108.411 17.7684 109.016 19.3124L109.947 18.9476ZM109.111 14.27C109.111 12.5656 109.392 11.0192 109.946 9.6246L109.017 9.2554C108.411 10.7808 108.111 12.4544 108.111 14.27H109.111ZM109.946 9.6246C110.503 8.22277 111.278 7.01998 112.268 6.01017L111.555 5.30983C110.465 6.42002 109.62 7.73723 109.017 9.2554L109.946 9.6246ZM112.268 6.01023C113.278 4.98187 114.478 4.18995 115.876 3.63468L115.507 2.70532C113.985 3.31005 112.665 4.17813 111.555 5.30977L112.268 6.01023ZM115.881 3.63247C117.275 3.05995 118.819 2.77 120.521 2.77V1.77C118.704 1.77 117.028 2.08005 115.501 2.70753L115.881 3.63247ZM120.521 2.77C122.224 2.77 123.757 3.05998 125.129 3.63154L125.514 2.70846C124.005 2.08002 122.339 1.77 120.521 1.77V2.77ZM125.137 3.63468C126.535 4.18995 127.735 4.98187 128.745 6.01023L129.458 5.30977C128.348 4.17813 127.028 3.31005 125.506 2.70532L125.137 3.63468ZM128.748 6.01355C129.757 7.02309 130.541 8.2248 131.097 9.6246L132.026 9.2554C131.422 7.7352 130.565 6.41691 129.455 5.30645L128.748 6.01355ZM131.097 9.6246C131.651 11.0192 131.931 12.5656 131.931 14.27H132.931C132.931 12.4544 132.632 10.7808 132.026 9.2554L131.097 9.6246ZM131.931 14.27C131.931 15.9743 131.651 17.5316 131.096 18.9476L132.027 19.3124C132.632 17.7684 132.931 16.0857 132.931 14.27H131.931ZM131.097 18.9454C130.54 20.346 129.756 21.5591 128.745 22.5898L129.458 23.2902C130.567 22.1609 131.422 20.834 132.026 19.3146L131.097 18.9454ZM128.748 22.5864C127.737 23.5972 126.533 24.3913 125.131 24.9675L125.511 25.8925C127.029 25.2687 128.346 24.4028 129.455 23.2936L128.748 22.5864ZM125.135 24.9662C123.761 25.5193 122.226 25.8 120.521 25.8V26.8C122.337 26.8 124.001 26.5007 125.508 25.8938L125.135 24.9662ZM120.521 23.98C121.881 23.98 123.139 23.7391 124.287 23.25L123.895 22.33C122.884 22.7609 121.761 22.98 120.521 22.98V23.98ZM124.291 23.2483C125.448 22.7437 126.452 22.0576 127.299 21.1892L126.584 20.4908C125.831 21.2624 124.935 21.8763 123.891 22.3317L124.291 23.2483ZM127.303 21.1848C128.151 20.2946 128.797 19.2565 129.24 18.0756L128.303 17.7244C127.906 18.7835 127.331 19.7054 126.579 20.4952L127.303 21.1848ZM129.237 18.0828C129.701 16.9001 129.931 15.6275 129.931 14.27H128.931C128.931 15.5125 128.721 16.6599 128.306 17.7172L129.237 18.0828ZM129.931 14.27C129.931 12.9125 129.701 11.6399 129.237 10.4572L128.306 10.8228C128.721 11.8801 128.931 13.0275 128.931 14.27H129.931ZM129.24 10.4644C128.796 9.28248 128.15 8.25263 127.299 7.38084L126.584 8.07916C127.333 8.84737 127.906 9.75752 128.303 10.8156L129.24 10.4644ZM127.303 7.38517C126.454 6.49365 125.446 5.80464 124.284 5.31871L123.899 6.24129C124.936 6.67535 125.828 7.28635 126.579 8.07483L127.303 7.38517ZM124.287 5.31999C123.139 4.8309 121.881 4.59 120.521 4.59V5.59C121.761 5.59 122.884 5.8091 123.895 6.24001L124.287 5.31999ZM120.521 4.59C119.161 4.59 117.895 4.83093 116.729 5.31871L117.114 6.24129C118.148 5.80907 119.282 5.59 120.521 5.59V4.59ZM116.725 5.31999C115.584 5.80634 114.587 6.49526 113.739 7.38517L114.463 8.07483C115.216 7.28474 116.099 6.67366 117.117 6.24001L116.725 5.31999ZM113.739 7.38539C112.912 8.25506 112.268 9.28094 111.806 10.4572L112.737 10.8228C113.155 9.75905 113.731 8.84493 114.464 8.07461L113.739 7.38539ZM111.806 10.4572C111.341 11.6399 111.111 12.9125 111.111 14.27H112.111C112.111 13.0275 112.321 11.8801 112.737 10.8228L111.806 10.4572ZM111.111 14.27C111.111 15.6275 111.341 16.9001 111.806 18.0828L112.737 17.7172C112.321 16.6599 112.111 15.5125 112.111 14.27H111.111ZM111.806 18.0828C112.268 19.2581 112.91 20.2922 113.735 21.1802L114.468 20.4998C113.732 19.7078 113.155 18.7819 112.737 17.7172L111.806 18.0828ZM113.744 21.1892C114.589 22.056 115.582 22.742 116.718 23.2469L117.124 22.3331C116.101 21.878 115.214 21.264 114.459 20.4908L113.744 21.1892ZM116.729 23.2513C117.895 23.7391 119.161 23.98 120.521 23.98V22.98C119.282 22.98 118.148 22.7609 117.114 22.3287L116.729 23.2513ZM141.098 25.7L141.261 25.2273L141.098 25.7ZM138.068 24.02L137.747 24.4034L138.068 24.02ZM136.178 21.53L136.638 21.3342L136.634 21.3245L136.63 21.315L136.178 21.53ZM136.178 20.36L135.752 20.0993L135.746 20.1081L135.741 20.1172L136.178 20.36ZM137.258 19.67L137.356 20.1604L137.367 20.1581L137.258 19.67ZM138.308 19.85L138.055 20.281L138.07 20.2896L138.085 20.2972L138.308 19.85ZM139.118 20.69L138.666 20.904L138.668 20.9064L139.118 20.69ZM140.288 22.07L139.981 22.4647L139.988 22.47L140.288 22.07ZM142.298 23.09L142.14 23.5643V23.5643L142.298 23.09ZM147.398 23.03L147.227 22.5604L147.223 22.5618L147.398 23.03ZM149.378 21.74L149.751 22.0731L149.757 22.0665L149.378 21.74ZM148.868 16.76L148.511 17.1093L148.515 17.1136L148.868 16.76ZM144.788 15.2L144.841 14.7027L144.837 14.7023L144.788 15.2ZM138.938 13.01L139.264 12.6307L138.938 13.01ZM140.918 3.02L140.743 2.55183L140.74 2.55276L140.918 3.02ZM148.358 2.81L148.182 3.27775L148.185 3.279L148.358 2.81ZM150.758 4.22L150.428 4.59492L150.758 4.22ZM152.528 6.35L152.101 6.61035L152.107 6.61844L152.528 6.35ZM152.858 7.61L152.364 7.53583L152.362 7.54671L152.361 7.55766L152.858 7.61ZM152.288 8.51L152.555 8.93277L152.56 8.92978L152.288 8.51ZM151.058 8.66L150.907 9.13646V9.13646L151.058 8.66ZM150.068 7.88L149.63 8.12159L149.636 8.13052L150.068 7.88ZM148.898 6.41L149.226 6.0327L149.226 6.0327L148.898 6.41ZM147.278 5.48L147.098 5.94628L147.104 5.94884L147.111 5.95121L147.278 5.48ZM145.088 5.12L145.082 5.62H145.088V5.12ZM141.368 5.96L141.613 6.3963L141.619 6.39251L141.368 5.96ZM140.318 10.31L139.878 10.5461L139.883 10.5556L139.888 10.5649L140.318 10.31ZM142.028 11.72L141.809 12.1694L141.813 12.1714L142.028 11.72ZM145.628 12.56L145.577 13.0574L145.578 13.0575L145.628 12.56ZM151.178 14.75L150.839 15.1172L150.845 15.1225L151.178 14.75ZM152.468 22.49L152.034 22.2419L152.03 22.2498L152.468 22.49ZM150.578 24.62L150.87 25.0262L150.872 25.0248L150.578 24.62ZM147.878 25.88L147.746 25.3978L147.744 25.3985L147.878 25.88ZM144.758 25.8C143.531 25.8 142.367 25.6085 141.261 25.2273L140.935 26.1727C142.15 26.5915 143.425 26.8 144.758 26.8V25.8ZM141.261 25.2273C140.154 24.8453 139.198 24.3139 138.389 23.6366L137.747 24.4034C138.658 25.1661 139.723 25.7547 140.935 26.1727L141.261 25.2273ZM138.389 23.6366C137.584 22.9622 137.005 22.1947 136.638 21.3342L135.718 21.7258C136.152 22.7453 136.833 23.6378 137.747 24.4034L138.389 23.6366ZM136.63 21.315C136.489 21.0191 136.505 20.8016 136.615 20.6028L135.741 20.1172C135.452 20.6384 135.468 21.2009 135.727 21.745L136.63 21.315ZM136.605 20.6207C136.737 20.4041 136.962 20.2391 137.356 20.1603L137.16 19.1797C136.554 19.3009 136.059 19.5959 135.752 20.0993L136.605 20.6207ZM137.367 20.1581C137.594 20.1076 137.816 20.1402 138.055 20.281L138.562 19.419C138.121 19.1598 137.643 19.0724 137.15 19.1819L137.367 20.1581ZM138.085 20.2972C138.34 20.4248 138.532 20.6202 138.666 20.904L139.57 20.476C139.345 19.9998 138.997 19.6351 138.532 19.4028L138.085 20.2972ZM138.668 20.9064C138.948 21.4905 139.394 22.008 139.981 22.4647L140.595 21.6753C140.102 21.292 139.769 20.8895 139.569 20.4736L138.668 20.9064ZM139.988 22.47C140.598 22.9273 141.318 23.2902 142.14 23.5643L142.456 22.6157C141.719 22.3698 141.099 22.0527 140.588 21.67L139.988 22.47ZM142.14 23.5643C142.974 23.8421 143.847 23.98 144.758 23.98V22.98C143.95 22.98 143.183 22.8579 142.456 22.6157L142.14 23.5643ZM144.758 23.98C145.771 23.98 146.711 23.8217 147.574 23.4982L147.223 22.5618C146.485 22.8383 145.666 22.98 144.758 22.98V23.98ZM147.57 23.4996C148.455 23.1759 149.188 22.7037 149.751 22.073L149.005 21.407C148.569 21.8963 147.982 22.2841 147.227 22.5604L147.57 23.4996ZM149.757 22.0665C150.343 21.3867 150.628 20.5573 150.628 19.61H149.628C149.628 20.3427 149.414 20.9333 149 21.4135L149.757 22.0665ZM150.628 19.61C150.628 18.4009 150.143 17.3278 149.222 16.4064L148.515 17.1136C149.273 17.8722 149.628 18.6991 149.628 19.61H150.628ZM149.226 16.4107C148.287 15.4489 146.789 14.9078 144.841 14.7027L144.736 15.6973C146.588 15.8922 147.809 16.3911 148.511 17.1093L149.226 16.4107ZM144.837 14.7023C142.426 14.469 140.584 13.7646 139.264 12.6307L138.613 13.3892C140.133 14.6954 142.191 15.451 144.74 15.6977L144.837 14.7023ZM139.264 12.6307C137.95 11.5014 137.308 10.1277 137.308 8.48H136.308C136.308 10.4323 137.087 12.0786 138.613 13.3892L139.264 12.6307ZM137.308 8.48C137.308 7.25973 137.648 6.25405 138.308 5.43338L137.529 4.80662C136.709 5.82595 136.308 7.06027 136.308 8.48H137.308ZM138.308 5.43338C138.985 4.59189 139.907 3.94021 141.096 3.48724L140.74 2.55276C139.409 3.05979 138.332 3.80811 137.529 4.80662L138.308 5.43338ZM141.094 3.48816C142.31 3.03197 143.67 2.8 145.178 2.8V1.8C143.567 1.8 142.086 2.04803 140.743 2.55183L141.094 3.48816ZM145.178 2.8C146.353 2.8 147.351 2.96393 148.182 3.27773L148.535 2.34226C147.566 1.97607 146.443 1.8 145.178 1.8V2.8ZM148.185 3.279C149.052 3.59937 149.797 4.03894 150.428 4.59492L151.089 3.84508C150.359 3.20106 149.505 2.70063 148.532 2.341L148.185 3.279ZM150.428 4.59492C151.068 5.15984 151.626 5.83058 152.101 6.6103L152.955 6.08969C152.431 5.22942 151.809 4.48016 151.089 3.84508L150.428 4.59492ZM152.107 6.61844C152.341 6.98687 152.401 7.28619 152.364 7.53583L153.353 7.68417C153.435 7.13381 153.276 6.59313 152.95 6.08156L152.107 6.61844ZM152.361 7.55766C152.338 7.77732 152.239 7.94665 152.017 8.09021L152.56 8.92978C153.018 8.63335 153.299 8.20268 153.356 7.66234L152.361 7.55766ZM152.021 8.08726C151.77 8.246 151.514 8.2802 151.21 8.18354L150.907 9.13646C151.483 9.3198 152.047 9.25399 152.555 8.93274L152.021 8.08726ZM151.21 8.18354C150.882 8.07912 150.655 7.89588 150.501 7.62948L149.636 8.13052C149.921 8.62412 150.355 8.96087 150.907 9.13646L151.21 8.18354ZM150.506 7.63846C150.16 7.01158 149.734 6.47437 149.226 6.0327L148.57 6.7873C148.982 7.14563 149.336 7.58842 149.631 8.12154L150.506 7.63846ZM149.226 6.0327C148.716 5.58844 148.12 5.24806 147.446 5.00879L147.111 5.95121C147.677 6.15193 148.161 6.43156 148.57 6.7873L149.226 6.0327ZM147.459 5.01372C146.768 4.74642 145.974 4.62 145.088 4.62V5.62C145.882 5.62 146.548 5.73358 147.098 5.94628L147.459 5.01372ZM145.095 4.62004C143.55 4.59916 142.215 4.89107 141.118 5.52748L141.619 6.39251C142.522 5.86892 143.667 5.60084 145.082 5.61995L145.095 4.62004ZM141.124 5.52375C140.557 5.84148 140.111 6.25942 139.81 6.78336C139.509 7.30655 139.368 7.90806 139.368 8.57H140.368C140.368 8.05194 140.478 7.62845 140.677 7.28164C140.876 6.93558 141.18 6.63851 141.613 6.39625L141.124 5.52375ZM139.368 8.57C139.368 9.25724 139.541 9.9179 139.878 10.5461L140.759 10.0739C140.496 9.5821 140.368 9.08276 140.368 8.57H139.368ZM139.888 10.5649C140.276 11.219 140.939 11.745 141.809 12.1694L142.248 11.2706C141.478 10.895 141.001 10.481 140.749 10.0551L139.888 10.5649ZM141.813 12.1714C142.728 12.6072 143.994 12.895 145.577 13.0574L145.679 12.0626C144.143 11.905 143.008 11.6328 142.243 11.2686L141.813 12.1714ZM145.578 13.0575C147.886 13.2902 149.621 13.9919 150.839 15.1172L151.518 14.3828C150.095 13.0681 148.131 12.3098 145.679 12.0625L145.578 13.0575ZM150.845 15.1225C152.068 16.2174 152.688 17.6662 152.688 19.52H153.688C153.688 17.4138 152.969 15.6826 151.512 14.3775L150.845 15.1225ZM152.688 19.52C152.688 20.5886 152.464 21.49 152.034 22.2419L152.902 22.7381C153.433 21.81 153.688 20.7314 153.688 19.52H152.688ZM152.03 22.2498C151.607 23.0228 151.027 23.6772 150.285 24.2152L150.872 25.0248C151.73 24.4028 152.41 23.6372 152.907 22.7302L152.03 22.2498ZM150.287 24.2138C149.56 24.7359 148.715 25.1319 147.746 25.3978L148.011 26.3622C149.082 26.0681 150.037 25.6241 150.87 25.0262L150.287 24.2138ZM147.744 25.3985C146.789 25.6657 145.795 25.8 144.758 25.8V26.8C145.882 26.8 146.968 26.6543 148.013 26.3615L147.744 25.3985Z" fill="#FE724C"/>
</svg>
